<svg t="1735188551620" class="icon" viewBox="0 0 1024 1024" version="1.1" xmlns="http://www.w3.org/2000/svg" p-id="4812" width="200" height="200"><path d="M978.467145 409.613653H455.100998v0.011378A45.5101 45.5101 0 0 0 409.590898 455.123753l-0.04551 113.775249a45.5101 45.5101 0 0 0 45.5101 45.521478L773.671696 614.409102a45.5101 45.5101 0 0 1 45.5101 45.5101v22.75505c0 75.398858-61.131442 136.530299-136.530299 136.530299H250.271416a45.5101 45.5101 0 0 1-45.5101-45.5101V341.348503h-0.011377c0-75.398858 61.120064-136.530299 136.530299-136.530299h637.061754v-0.022755a45.5101 45.5101 0 0 0 45.5101-45.487345l0.102398-113.775249H1023.977245a45.5101 45.5101 0 0 0-45.5101-45.532855L341.325748 0.022755C152.822915 0.022755 0 152.84567 0 341.348503v637.141397a45.5101 45.5101 0 0 0 45.5101 45.5101h671.273971c169.661652 0 307.193173-137.531522 307.193174-307.193173V455.123753a45.5101 45.5101 0 0 0-45.5101-45.5101z" p-id="4813"></path></svg>